<svg xmlns="http://www.w3.org/2000/svg" xmlns:xlink="http://www.w3.org/1999/xlink" version="1.1" x="0px" y="0px" width="1200mm" height="800mm" viewBox="0 0 1200 800">
    <text x="200.000000" y="500.000000" fill="#000" font-family="MS-Gothic">※グループ化されている展開図を[合体]してください</text>
    <text x="200.000000" y="520.000000" fill="#000" font-family="MS-Gothic">(合成するオブジェクトを選択 → [ウィンドウ] → [パスファインダ] → [合体])</text>
    <g>
        <rect height="149.388885498" width="187.166671753" x="306.416687012" y="325.305541992" fill="none" stroke="#f00" stroke-width="0.01"></rect>
        <rect height="11.491453171" width="4.194444656" x="302.222229004" y="325.305541992" fill="none" stroke="#f00" stroke-width="0.01"></rect>
        <rect height="11.591453552" width="4.194444656" x="493.583312988" y="336.747009277" fill="none" stroke="#f00" stroke-width="0.01"></rect>
        <rect height="11.491453171" width="4.194444656" x="302.222229004" y="348.288452148" fill="none" stroke="#f00" stroke-width="0.01"></rect>
        <rect height="11.591453552" width="4.194444656" x="493.583312988" y="359.729919434" fill="none" stroke="#f00" stroke-width="0.01"></rect>
        <rect height="11.491453171" width="4.194444656" x="302.222229004" y="371.271362305" fill="none" stroke="#f00" stroke-width="0.01"></rect>
        <rect height="11.591453552" width="4.194444656" x="493.583312988" y="382.712829590" fill="none" stroke="#f00" stroke-width="0.01"></rect>
        <rect height="11.491453171" width="4.194444656" x="302.222229004" y="394.254272461" fill="none" stroke="#f00" stroke-width="0.01"></rect>
        <rect height="11.591453552" width="4.194444656" x="493.583312988" y="405.695739746" fill="none" stroke="#f00" stroke-width="0.01"></rect>
        <rect height="11.491453171" width="4.194444656" x="302.222229004" y="417.237182617" fill="none" stroke="#f00" stroke-width="0.01"></rect>
        <rect height="11.591453552" width="4.194444656" x="493.583312988" y="428.678649902" fill="none" stroke="#f00" stroke-width="0.01"></rect>
        <rect height="11.491453171" width="4.194444656" x="302.222229004" y="440.220092773" fill="none" stroke="#f00" stroke-width="0.01"></rect>
        <rect height="11.591453552" width="4.194444656" x="493.583312988" y="451.661529541" fill="none" stroke="#f00" stroke-width="0.01"></rect>
        <rect height="11.491453171" width="4.194444656" x="302.222229004" y="463.203002930" fill="none" stroke="#f00" stroke-width="0.01"></rect>
        <rect height="4.194444656" width="20.896297455" x="327.162994385" y="321.111114502" fill="none" stroke="#f00" stroke-width="0.01"></rect>
        <rect height="4.194444656" width="20.896297455" x="327.162994385" y="474.694458008" fill="none" stroke="#f00" stroke-width="0.01"></rect>
        <rect height="4.194444656" width="20.896297455" x="368.755584717" y="321.111114502" fill="none" stroke="#f00" stroke-width="0.01"></rect>
        <rect height="4.194444656" width="20.896297455" x="368.755584717" y="474.694458008" fill="none" stroke="#f00" stroke-width="0.01"></rect>
        <rect height="4.194444656" width="20.896297455" x="410.348175049" y="321.111114502" fill="none" stroke="#f00" stroke-width="0.01"></rect>
        <rect height="4.194444656" width="20.896297455" x="410.348175049" y="474.694458008" fill="none" stroke="#f00" stroke-width="0.01"></rect>
        <rect height="4.194444656" width="20.896297455" x="451.940795898" y="321.111114502" fill="none" stroke="#f00" stroke-width="0.01"></rect>
        <rect height="4.194444656" width="20.896297455" x="451.940795898" y="474.694458008" fill="none" stroke="#f00" stroke-width="0.01"></rect>
    </g>
    <g>
        <rect height="149.388885498" width="187.166671753" x="714.194458008" y="325.305541992" fill="none" stroke="#f00" stroke-width="0.01"></rect>
        <rect height="11.491453171" width="4.194444656" x="710.000000000" y="325.305541992" fill="none" stroke="#f00" stroke-width="0.01"></rect>
        <rect height="11.591453552" width="4.194444656" x="901.361145020" y="336.747009277" fill="none" stroke="#f00" stroke-width="0.01"></rect>
        <rect height="11.491453171" width="4.194444656" x="710.000000000" y="348.288452148" fill="none" stroke="#f00" stroke-width="0.01"></rect>
        <rect height="11.591453552" width="4.194444656" x="901.361145020" y="359.729919434" fill="none" stroke="#f00" stroke-width="0.01"></rect>
        <rect height="11.491453171" width="4.194444656" x="710.000000000" y="371.271362305" fill="none" stroke="#f00" stroke-width="0.01"></rect>
        <rect height="11.591453552" width="4.194444656" x="901.361145020" y="382.712829590" fill="none" stroke="#f00" stroke-width="0.01"></rect>
        <rect height="11.491453171" width="4.194444656" x="710.000000000" y="394.254272461" fill="none" stroke="#f00" stroke-width="0.01"></rect>
        <rect height="11.591453552" width="4.194444656" x="901.361145020" y="405.695739746" fill="none" stroke="#f00" stroke-width="0.01"></rect>
        <rect height="11.491453171" width="4.194444656" x="710.000000000" y="417.237182617" fill="none" stroke="#f00" stroke-width="0.01"></rect>
        <rect height="11.591453552" width="4.194444656" x="901.361145020" y="428.678649902" fill="none" stroke="#f00" stroke-width="0.01"></rect>
        <rect height="11.491453171" width="4.194444656" x="710.000000000" y="440.220092773" fill="none" stroke="#f00" stroke-width="0.01"></rect>
        <rect height="11.591453552" width="4.194444656" x="901.361145020" y="451.661529541" fill="none" stroke="#f00" stroke-width="0.01"></rect>
        <rect height="11.491453171" width="4.194444656" x="710.000000000" y="463.203002930" fill="none" stroke="#f00" stroke-width="0.01"></rect>
        <rect height="4.194444656" width="20.896297455" x="734.940795898" y="321.111114502" fill="none" stroke="#f00" stroke-width="0.01"></rect>
        <rect height="4.194444656" width="20.896297455" x="734.940795898" y="474.694458008" fill="none" stroke="#f00" stroke-width="0.01"></rect>
        <rect height="4.194444656" width="20.896297455" x="776.533386230" y="321.111114502" fill="none" stroke="#f00" stroke-width="0.01"></rect>
        <rect height="4.194444656" width="20.896297455" x="776.533386230" y="474.694458008" fill="none" stroke="#f00" stroke-width="0.01"></rect>
        <rect height="4.194444656" width="20.896297455" x="818.125976562" y="321.111114502" fill="none" stroke="#f00" stroke-width="0.01"></rect>
        <rect height="4.194444656" width="20.896297455" x="818.125976562" y="474.694458008" fill="none" stroke="#f00" stroke-width="0.01"></rect>
        <rect height="4.194444656" width="20.896297455" x="859.718566895" y="321.111114502" fill="none" stroke="#f00" stroke-width="0.01"></rect>
        <rect height="4.194444656" width="20.896297455" x="859.718566895" y="474.694458008" fill="none" stroke="#f00" stroke-width="0.01"></rect>
    </g>
    <g>
        <rect height="149.388885498" width="173.833343506" x="109.194442749" y="325.305541992" fill="none" stroke="#f00" stroke-width="0.01"></rect>
        <rect height="11.491453171" width="4.194444656" x="105.000000000" y="325.305541992" fill="none" stroke="#f00" stroke-width="0.01"></rect>
        <rect height="11.591453552" width="4.194444656" x="283.027770996" y="336.747009277" fill="none" stroke="#f00" stroke-width="0.01"></rect>
        <rect height="11.491453171" width="4.194444656" x="105.000000000" y="348.288452148" fill="none" stroke="#f00" stroke-width="0.01"></rect>
        <rect height="11.591453552" width="4.194444656" x="283.027770996" y="359.729919434" fill="none" stroke="#f00" stroke-width="0.01"></rect>
        <rect height="11.491453171" width="4.194444656" x="105.000000000" y="371.271362305" fill="none" stroke="#f00" stroke-width="0.01"></rect>
        <rect height="11.591453552" width="4.194444656" x="283.027770996" y="382.712829590" fill="none" stroke="#f00" stroke-width="0.01"></rect>
        <rect height="11.491453171" width="4.194444656" x="105.000000000" y="394.254272461" fill="none" stroke="#f00" stroke-width="0.01"></rect>
        <rect height="11.591453552" width="4.194444656" x="283.027770996" y="405.695739746" fill="none" stroke="#f00" stroke-width="0.01"></rect>
        <rect height="11.491453171" width="4.194444656" x="105.000000000" y="417.237182617" fill="none" stroke="#f00" stroke-width="0.01"></rect>
        <rect height="11.591453552" width="4.194444656" x="283.027770996" y="428.678649902" fill="none" stroke="#f00" stroke-width="0.01"></rect>
        <rect height="11.491453171" width="4.194444656" x="105.000000000" y="440.220092773" fill="none" stroke="#f00" stroke-width="0.01"></rect>
        <rect height="11.591453552" width="4.194444656" x="283.027770996" y="451.661529541" fill="none" stroke="#f00" stroke-width="0.01"></rect>
        <rect height="11.491453171" width="4.194444656" x="105.000000000" y="463.203002930" fill="none" stroke="#f00" stroke-width="0.01"></rect>
        <rect height="4.194444656" width="34.866668701" x="143.911117554" y="321.111114502" fill="none" stroke="#f00" stroke-width="0.01"></rect>
        <rect height="4.194444656" width="34.866668701" x="143.911117554" y="474.694458008" fill="none" stroke="#f00" stroke-width="0.01"></rect>
        <rect height="4.194444656" width="34.866668701" x="213.444442749" y="321.111114502" fill="none" stroke="#f00" stroke-width="0.01"></rect>
        <rect height="4.194444656" width="34.866668701" x="213.444442749" y="474.694458008" fill="none" stroke="#f00" stroke-width="0.01"></rect>
    </g>
    <g>
        <rect height="149.388885498" width="173.833343506" x="516.972229004" y="325.305541992" fill="none" stroke="#f00" stroke-width="0.01"></rect>
        <rect height="11.491453171" width="4.194444656" x="512.777770996" y="325.305541992" fill="none" stroke="#f00" stroke-width="0.01"></rect>
        <rect height="11.591453552" width="4.194444656" x="690.805541992" y="336.747009277" fill="none" stroke="#f00" stroke-width="0.01"></rect>
        <rect height="11.491453171" width="4.194444656" x="512.777770996" y="348.288452148" fill="none" stroke="#f00" stroke-width="0.01"></rect>
        <rect height="11.591453552" width="4.194444656" x="690.805541992" y="359.729919434" fill="none" stroke="#f00" stroke-width="0.01"></rect>
        <rect height="11.491453171" width="4.194444656" x="512.777770996" y="371.271362305" fill="none" stroke="#f00" stroke-width="0.01"></rect>
        <rect height="11.591453552" width="4.194444656" x="690.805541992" y="382.712829590" fill="none" stroke="#f00" stroke-width="0.01"></rect>
        <rect height="11.491453171" width="4.194444656" x="512.777770996" y="394.254272461" fill="none" stroke="#f00" stroke-width="0.01"></rect>
        <rect height="11.591453552" width="4.194444656" x="690.805541992" y="405.695739746" fill="none" stroke="#f00" stroke-width="0.01"></rect>
        <rect height="11.491453171" width="4.194444656" x="512.777770996" y="417.237182617" fill="none" stroke="#f00" stroke-width="0.01"></rect>
        <rect height="11.591453552" width="4.194444656" x="690.805541992" y="428.678649902" fill="none" stroke="#f00" stroke-width="0.01"></rect>
        <rect height="11.491453171" width="4.194444656" x="512.777770996" y="440.220092773" fill="none" stroke="#f00" stroke-width="0.01"></rect>
        <rect height="11.591453552" width="4.194444656" x="690.805541992" y="451.661529541" fill="none" stroke="#f00" stroke-width="0.01"></rect>
        <rect height="11.491453171" width="4.194444656" x="512.777770996" y="463.203002930" fill="none" stroke="#f00" stroke-width="0.01"></rect>
        <rect height="4.194444656" width="34.866668701" x="551.688903809" y="321.111114502" fill="none" stroke="#f00" stroke-width="0.01"></rect>
        <rect height="4.194444656" width="34.866668701" x="551.688903809" y="474.694458008" fill="none" stroke="#f00" stroke-width="0.01"></rect>
        <rect height="4.194444656" width="34.866668701" x="621.222229004" y="321.111114502" fill="none" stroke="#f00" stroke-width="0.01"></rect>
        <rect height="4.194444656" width="34.866668701" x="621.222229004" y="474.694458008" fill="none" stroke="#f00" stroke-width="0.01"></rect>
    </g>
    <g>
        <rect height="173.833343506" width="187.166671753" x="306.416687012" y="128.083343506" fill="none" stroke="#f00" stroke-width="0.01"></rect>
        <rect height="4.194444656" width="20.796297073" x="306.416687012" y="123.888885498" fill="none" stroke="#f00" stroke-width="0.01"></rect>
        <rect height="4.194444656" width="20.796297073" x="306.416687012" y="301.916687012" fill="none" stroke="#f00" stroke-width="0.01"></rect>
        <rect height="4.194444656" width="20.796297073" x="348.009277344" y="123.888885498" fill="none" stroke="#f00" stroke-width="0.01"></rect>
        <rect height="4.194444656" width="20.796297073" x="348.009277344" y="301.916687012" fill="none" stroke="#f00" stroke-width="0.01"></rect>
        <rect height="4.194444656" width="20.796297073" x="389.601867676" y="123.888885498" fill="none" stroke="#f00" stroke-width="0.01"></rect>
        <rect height="4.194444656" width="20.796297073" x="389.601867676" y="301.916687012" fill="none" stroke="#f00" stroke-width="0.01"></rect>
        <rect height="4.194444656" width="20.796297073" x="431.194458008" y="123.888885498" fill="none" stroke="#f00" stroke-width="0.01"></rect>
        <rect height="4.194444656" width="20.796297073" x="431.194458008" y="301.916687012" fill="none" stroke="#f00" stroke-width="0.01"></rect>
        <rect height="4.194444656" width="20.796297073" x="472.787048340" y="123.888885498" fill="none" stroke="#f00" stroke-width="0.01"></rect>
        <rect height="4.194444656" width="20.796297073" x="472.787048340" y="301.916687012" fill="none" stroke="#f00" stroke-width="0.01"></rect>
        <rect height="34.766670227" width="4.194444656" x="302.222229004" y="128.083343506" fill="none" stroke="#f00" stroke-width="0.01"></rect>
        <rect height="34.766670227" width="4.194444656" x="493.583312988" y="128.083343506" fill="none" stroke="#f00" stroke-width="0.01"></rect>
        <rect height="34.766670227" width="4.194444656" x="302.222229004" y="197.616683960" fill="none" stroke="#f00" stroke-width="0.01"></rect>
        <rect height="34.766670227" width="4.194444656" x="493.583312988" y="197.616683960" fill="none" stroke="#f00" stroke-width="0.01"></rect>
        <rect height="34.766670227" width="4.194444656" x="302.222229004" y="267.150024414" fill="none" stroke="#f00" stroke-width="0.01"></rect>
        <rect height="34.766670227" width="4.194444656" x="493.583312988" y="267.150024414" fill="none" stroke="#f00" stroke-width="0.01"></rect>
        <rect height="4.194444656" width="4.194444656" x="302.222229004" y="123.888885498" fill="none" stroke="#f00" stroke-width="0.01"></rect>
        <rect height="4.194444656" width="4.194444656" x="302.222229004" y="301.916687012" fill="none" stroke="#f00" stroke-width="0.01"></rect>
        <rect height="4.194444656" width="4.194444656" x="493.583374023" y="123.888885498" fill="none" stroke="#f00" stroke-width="0.01"></rect>
        <rect height="4.194444656" width="4.194444656" x="493.583374023" y="301.916687012" fill="none" stroke="#f00" stroke-width="0.01"></rect>
    </g>
    <g>
        <rect height="173.833343506" width="187.166671753" x="306.416687012" y="498.083343506" fill="none" stroke="#f00" stroke-width="0.01"></rect>
        <rect height="4.194444656" width="20.796297073" x="306.416687012" y="493.888885498" fill="none" stroke="#f00" stroke-width="0.01"></rect>
        <rect height="4.194444656" width="20.796297073" x="306.416687012" y="671.916625977" fill="none" stroke="#f00" stroke-width="0.01"></rect>
        <rect height="4.194444656" width="20.796297073" x="348.009277344" y="493.888885498" fill="none" stroke="#f00" stroke-width="0.01"></rect>
        <rect height="4.194444656" width="20.796297073" x="348.009277344" y="671.916625977" fill="none" stroke="#f00" stroke-width="0.01"></rect>
        <rect height="4.194444656" width="20.796297073" x="389.601867676" y="493.888885498" fill="none" stroke="#f00" stroke-width="0.01"></rect>
        <rect height="4.194444656" width="20.796297073" x="389.601867676" y="671.916625977" fill="none" stroke="#f00" stroke-width="0.01"></rect>
        <rect height="4.194444656" width="20.796297073" x="431.194458008" y="493.888885498" fill="none" stroke="#f00" stroke-width="0.01"></rect>
        <rect height="4.194444656" width="20.796297073" x="431.194458008" y="671.916625977" fill="none" stroke="#f00" stroke-width="0.01"></rect>
        <rect height="4.194444656" width="20.796297073" x="472.787048340" y="493.888885498" fill="none" stroke="#f00" stroke-width="0.01"></rect>
        <rect height="4.194444656" width="20.796297073" x="472.787048340" y="671.916625977" fill="none" stroke="#f00" stroke-width="0.01"></rect>
        <rect height="34.766670227" width="4.194444656" x="302.222229004" y="498.083343506" fill="none" stroke="#f00" stroke-width="0.01"></rect>
        <rect height="34.766670227" width="4.194444656" x="493.583312988" y="498.083343506" fill="none" stroke="#f00" stroke-width="0.01"></rect>
        <rect height="34.766670227" width="4.194444656" x="302.222229004" y="567.616699219" fill="none" stroke="#f00" stroke-width="0.01"></rect>
        <rect height="34.766670227" width="4.194444656" x="493.583312988" y="567.616699219" fill="none" stroke="#f00" stroke-width="0.01"></rect>
        <rect height="34.766670227" width="4.194444656" x="302.222229004" y="637.150024414" fill="none" stroke="#f00" stroke-width="0.01"></rect>
        <rect height="34.766670227" width="4.194444656" x="493.583312988" y="637.150024414" fill="none" stroke="#f00" stroke-width="0.01"></rect>
        <rect height="4.194444656" width="4.194444656" x="302.222229004" y="493.888885498" fill="none" stroke="#f00" stroke-width="0.01"></rect>
        <rect height="4.194444656" width="4.194444656" x="302.222229004" y="671.916687012" fill="none" stroke="#f00" stroke-width="0.01"></rect>
        <rect height="4.194444656" width="4.194444656" x="493.583374023" y="493.888885498" fill="none" stroke="#f00" stroke-width="0.01"></rect>
        <rect height="4.194444656" width="4.194444656" x="493.583374023" y="671.916687012" fill="none" stroke="#f00" stroke-width="0.01"></rect>
    </g>
    <g>&apos;a&apos;</g>
</svg>
