<svg xmlns="http://www.w3.org/2000/svg" xmlns:xlink="http://www.w3.org/1999/xlink" version="1.1" x="0px" y="0px" width="1200mm" height="800mm" viewBox="0 0 1200 800">
    <text x="200.000000" y="500.000000" fill="#000" font-family="MS-Gothic">※グループ化されている展開図を[合体]してください</text>
    <text x="200.000000" y="520.000000" fill="#000" font-family="MS-Gothic">(合成するオブジェクトを選択 → [ウィンドウ] → [パスファインダ] → [合体])</text>
    <g>
        <rect height="44.000000000" width="266.222229004" x="266.888885498" y="378.000000000" fill="none" stroke="#f00" stroke-width="0.01"></rect>
        <rect height="8.800000191" width="3.000000000" x="263.888885498" y="378.000000000" fill="none" stroke="#f00" stroke-width="0.01"></rect>
        <rect height="8.900000572" width="3.000000000" x="533.111083984" y="386.750000000" fill="none" stroke="#f00" stroke-width="0.01"></rect>
        <rect height="8.800000191" width="3.000000000" x="263.888885498" y="395.600006104" fill="none" stroke="#f00" stroke-width="0.01"></rect>
        <rect height="8.900000572" width="3.000000000" x="533.111083984" y="404.350006104" fill="none" stroke="#f00" stroke-width="0.01"></rect>
        <rect height="8.800000191" width="3.000000000" x="263.888885498" y="413.200012207" fill="none" stroke="#f00" stroke-width="0.01"></rect>
        <rect height="3.000000000" width="53.344444275" x="320.083343506" y="375.000000000" fill="none" stroke="#f00" stroke-width="0.01"></rect>
        <rect height="3.000000000" width="53.344444275" x="320.083343506" y="422.000000000" fill="none" stroke="#f00" stroke-width="0.01"></rect>
        <rect height="3.000000000" width="53.344444275" x="426.572235107" y="375.000000000" fill="none" stroke="#f00" stroke-width="0.01"></rect>
        <rect height="3.000000000" width="53.344444275" x="426.572235107" y="422.000000000" fill="none" stroke="#f00" stroke-width="0.01"></rect>
    </g>
    <g>
        <rect height="44.000000000" width="266.222229004" x="869.111083984" y="378.000000000" fill="none" stroke="#f00" stroke-width="0.01"></rect>
        <rect height="8.800000191" width="3.000000000" x="866.111145020" y="378.000000000" fill="none" stroke="#f00" stroke-width="0.01"></rect>
        <rect height="8.900000572" width="3.000000000" x="1135.333374023" y="386.750000000" fill="none" stroke="#f00" stroke-width="0.01"></rect>
        <rect height="8.800000191" width="3.000000000" x="866.111145020" y="395.600006104" fill="none" stroke="#f00" stroke-width="0.01"></rect>
        <rect height="8.900000572" width="3.000000000" x="1135.333374023" y="404.350006104" fill="none" stroke="#f00" stroke-width="0.01"></rect>
        <rect height="8.800000191" width="3.000000000" x="866.111145020" y="413.200012207" fill="none" stroke="#f00" stroke-width="0.01"></rect>
        <rect height="3.000000000" width="53.344444275" x="922.305541992" y="375.000000000" fill="none" stroke="#f00" stroke-width="0.01"></rect>
        <rect height="3.000000000" width="53.344444275" x="922.305541992" y="422.000000000" fill="none" stroke="#f00" stroke-width="0.01"></rect>
        <rect height="3.000000000" width="53.344444275" x="1028.794433594" y="375.000000000" fill="none" stroke="#f00" stroke-width="0.01"></rect>
        <rect height="3.000000000" width="53.344444275" x="1028.794433594" y="422.000000000" fill="none" stroke="#f00" stroke-width="0.01"></rect>
    </g>
    <g>
        <rect height="44.000000000" width="294.000000000" x="-48.111114502" y="378.000000000" fill="none" stroke="#f00" stroke-width="0.01"></rect>
        <rect height="8.800000191" width="3.000000000" x="-51.111114502" y="378.000000000" fill="none" stroke="#f00" stroke-width="0.01"></rect>
        <rect height="8.900000572" width="3.000000000" x="245.888885498" y="386.750000000" fill="none" stroke="#f00" stroke-width="0.01"></rect>
        <rect height="8.800000191" width="3.000000000" x="-51.111114502" y="395.600006104" fill="none" stroke="#f00" stroke-width="0.01"></rect>
        <rect height="8.900000572" width="3.000000000" x="245.888885498" y="404.350006104" fill="none" stroke="#f00" stroke-width="0.01"></rect>
        <rect height="8.800000191" width="3.000000000" x="-51.111114502" y="413.200012207" fill="none" stroke="#f00" stroke-width="0.01"></rect>
        <rect height="3.000000000" width="58.899997711" x="10.638885498" y="375.000000000" fill="none" stroke="#f00" stroke-width="0.01"></rect>
        <rect height="3.000000000" width="58.899997711" x="10.638885498" y="422.000000000" fill="none" stroke="#f00" stroke-width="0.01"></rect>
        <rect height="3.000000000" width="58.899997711" x="128.238876343" y="375.000000000" fill="none" stroke="#f00" stroke-width="0.01"></rect>
        <rect height="3.000000000" width="58.899997711" x="128.238876343" y="422.000000000" fill="none" stroke="#f00" stroke-width="0.01"></rect>
    </g>
    <g>
        <rect height="44.000000000" width="294.000000000" x="554.111083984" y="378.000000000" fill="none" stroke="#f00" stroke-width="0.01"></rect>
        <rect height="8.800000191" width="3.000000000" x="551.111083984" y="378.000000000" fill="none" stroke="#f00" stroke-width="0.01"></rect>
        <rect height="8.900000572" width="3.000000000" x="848.111083984" y="386.750000000" fill="none" stroke="#f00" stroke-width="0.01"></rect>
        <rect height="8.800000191" width="3.000000000" x="551.111083984" y="395.600006104" fill="none" stroke="#f00" stroke-width="0.01"></rect>
        <rect height="8.900000572" width="3.000000000" x="848.111083984" y="404.350006104" fill="none" stroke="#f00" stroke-width="0.01"></rect>
        <rect height="8.800000191" width="3.000000000" x="551.111083984" y="413.200012207" fill="none" stroke="#f00" stroke-width="0.01"></rect>
        <rect height="3.000000000" width="58.899997711" x="612.861083984" y="375.000000000" fill="none" stroke="#f00" stroke-width="0.01"></rect>
        <rect height="3.000000000" width="58.899997711" x="612.861083984" y="422.000000000" fill="none" stroke="#f00" stroke-width="0.01"></rect>
        <rect height="3.000000000" width="58.899997711" x="730.461120605" y="375.000000000" fill="none" stroke="#f00" stroke-width="0.01"></rect>
        <rect height="3.000000000" width="58.899997711" x="730.461120605" y="422.000000000" fill="none" stroke="#f00" stroke-width="0.01"></rect>
    </g>
    <g>
        <rect height="294.000000000" width="266.222229004" x="266.888885498" y="63.000000000" fill="none" stroke="#f00" stroke-width="0.01"></rect>
        <rect height="3.000000000" width="53.244445801" x="266.888885498" y="60.000000000" fill="none" stroke="#f00" stroke-width="0.01"></rect>
        <rect height="3.000000000" width="53.244445801" x="266.888885498" y="357.000000000" fill="none" stroke="#f00" stroke-width="0.01"></rect>
        <rect height="3.000000000" width="53.244445801" x="373.377777100" y="60.000000000" fill="none" stroke="#f00" stroke-width="0.01"></rect>
        <rect height="3.000000000" width="53.244445801" x="373.377777100" y="357.000000000" fill="none" stroke="#f00" stroke-width="0.01"></rect>
        <rect height="3.000000000" width="53.244445801" x="479.866668701" y="60.000000000" fill="none" stroke="#f00" stroke-width="0.01"></rect>
        <rect height="3.000000000" width="53.244445801" x="479.866668701" y="357.000000000" fill="none" stroke="#f00" stroke-width="0.01"></rect>
        <rect height="58.799999237" width="3.000000000" x="263.888885498" y="63.000000000" fill="none" stroke="#f00" stroke-width="0.01"></rect>
        <rect height="58.799999237" width="3.000000000" x="533.111083984" y="63.000000000" fill="none" stroke="#f00" stroke-width="0.01"></rect>
        <rect height="58.799999237" width="3.000000000" x="263.888885498" y="180.600006104" fill="none" stroke="#f00" stroke-width="0.01"></rect>
        <rect height="58.799999237" width="3.000000000" x="533.111083984" y="180.600006104" fill="none" stroke="#f00" stroke-width="0.01"></rect>
        <rect height="58.799999237" width="3.000000000" x="263.888885498" y="298.200012207" fill="none" stroke="#f00" stroke-width="0.01"></rect>
        <rect height="58.799999237" width="3.000000000" x="533.111083984" y="298.200012207" fill="none" stroke="#f00" stroke-width="0.01"></rect>
        <rect height="3.000000000" width="3.000000000" x="263.888885498" y="60.000000000" fill="none" stroke="#f00" stroke-width="0.01"></rect>
        <rect height="3.000000000" width="3.000000000" x="263.888885498" y="357.000000000" fill="none" stroke="#f00" stroke-width="0.01"></rect>
        <rect height="3.000000000" width="3.000000000" x="533.111083984" y="60.000000000" fill="none" stroke="#f00" stroke-width="0.01"></rect>
        <rect height="3.000000000" width="3.000000000" x="533.111083984" y="357.000000000" fill="none" stroke="#f00" stroke-width="0.01"></rect>
    </g>
    <g>
        <rect height="294.000000000" width="266.222229004" x="266.888885498" y="443.000000000" fill="none" stroke="#f00" stroke-width="0.01"></rect>
        <rect height="3.000000000" width="53.244445801" x="266.888885498" y="440.000000000" fill="none" stroke="#f00" stroke-width="0.01"></rect>
        <rect height="3.000000000" width="53.244445801" x="266.888885498" y="737.000000000" fill="none" stroke="#f00" stroke-width="0.01"></rect>
        <rect height="3.000000000" width="53.244445801" x="373.377777100" y="440.000000000" fill="none" stroke="#f00" stroke-width="0.01"></rect>
        <rect height="3.000000000" width="53.244445801" x="373.377777100" y="737.000000000" fill="none" stroke="#f00" stroke-width="0.01"></rect>
        <rect height="3.000000000" width="53.244445801" x="479.866668701" y="440.000000000" fill="none" stroke="#f00" stroke-width="0.01"></rect>
        <rect height="3.000000000" width="53.244445801" x="479.866668701" y="737.000000000" fill="none" stroke="#f00" stroke-width="0.01"></rect>
        <rect height="58.799999237" width="3.000000000" x="263.888885498" y="443.000000000" fill="none" stroke="#f00" stroke-width="0.01"></rect>
        <rect height="58.799999237" width="3.000000000" x="533.111083984" y="443.000000000" fill="none" stroke="#f00" stroke-width="0.01"></rect>
        <rect height="58.799999237" width="3.000000000" x="263.888885498" y="560.599975586" fill="none" stroke="#f00" stroke-width="0.01"></rect>
        <rect height="58.799999237" width="3.000000000" x="533.111083984" y="560.599975586" fill="none" stroke="#f00" stroke-width="0.01"></rect>
        <rect height="58.799999237" width="3.000000000" x="263.888885498" y="678.200012207" fill="none" stroke="#f00" stroke-width="0.01"></rect>
        <rect height="58.799999237" width="3.000000000" x="533.111083984" y="678.200012207" fill="none" stroke="#f00" stroke-width="0.01"></rect>
        <rect height="3.000000000" width="3.000000000" x="263.888885498" y="440.000000000" fill="none" stroke="#f00" stroke-width="0.01"></rect>
        <rect height="3.000000000" width="3.000000000" x="263.888885498" y="737.000000000" fill="none" stroke="#f00" stroke-width="0.01"></rect>
        <rect height="3.000000000" width="3.000000000" x="533.111083984" y="440.000000000" fill="none" stroke="#f00" stroke-width="0.01"></rect>
        <rect height="3.000000000" width="3.000000000" x="533.111083984" y="737.000000000" fill="none" stroke="#f00" stroke-width="0.01"></rect>
    </g>
    <g>&apos;a&apos;</g>
</svg>
